<?xml version="1.0" encoding="utf-8"?>
<!-- Generator: Adobe Illustrator 18.0.0, SVG Export Plug-In . SVG Version: 6.00 Build 0)  -->
<!DOCTYPE svg PUBLIC "-//W3C//DTD SVG 1.1//EN" "http://www.w3.org/Graphics/SVG/1.1/DTD/svg11.dtd">
<svg version="1.1" id="bitbucket" xmlns="http://www.w3.org/2000/svg" xmlns:xlink="http://www.w3.org/1999/xlink" x="0px" y="0px"
	 viewBox="0 0 863.6 267.7" enable-background="new 0 0 863.6 267.7" xml:space="preserve">
<g>
	<g>
		<g>
			<g>
				<path fill="#FFFFFF" d="M432.9,136.5c-9.2,0-18.5,2.3-24.9,4.6v-34.6c0-1.7-1.4-3.1-3.1-3.1h-18.6c-1.7,0-3.1,1.4-3.1,3.1v119
					c0,1.5,1.1,2.8,2.6,3.1c11.5,2.1,25,2.8,33.2,2.8c35,0,42.1-14.9,42.1-37.2v-26C461,147.2,451.5,136.5,432.9,136.5z
					 M419.9,209.9c-4.7,0-8.6-0.2-11.9-0.6v-46.6c5.1-2.3,12.3-4.6,18.1-4.6c7.1,0,9.9,2.8,9.9,9.6V195
					C436.1,204.9,433.6,209.9,419.9,209.9z"/>
				<path fill="#FFFFFF" d="M546.7,138.3h-18.6c-1.7,0-3.1,1.4-3.1,3.1v58.9c-6.7,3.4-16.2,6.9-21.8,6.9c-4.2,0-5.7-1.5-5.7-5.7
					v-60.1c0-1.7-1.4-3.1-3.2-3.1h-18.6c-1.8,0-3.2,1.4-3.2,3.1v62.5c0,18.3,7.2,27.6,21.4,27.6c9.9,0,23.3-3.4,34.7-8.7l1.4,4.6
					c0.4,1.3,1.6,2.3,3,2.3l13.8,0c1.7,0,3.2-1.4,3.2-3.1v-85.1C549.8,139.7,548.4,138.3,546.7,138.3z"/>
				<path fill="#FFFFFF" d="M621.6,210.4c-0.1-0.9-0.6-1.6-1.3-2.1c-0.7-0.5-1.6-0.7-2.5-0.5c-5.3,1.2-10.9,1.9-16.2,1.9
					c-11.8,0-15.2-3-15.2-13.4v-24.6c0-10.4,3.4-13.4,15.2-13.4c2.8,0,9.8,0.4,16.2,1.9c0.9,0.2,1.8,0,2.5-0.5
					c0.7-0.5,1.2-1.3,1.3-2.1l2.2-14.7c0.2-1.6-0.7-3-2.2-3.5c-7.2-2.1-15.6-2.9-20.5-2.9c-28.1,0-39.6,10.2-39.6,35.4v24.2
					c0,25.1,11.5,35.4,39.6,35.4c6.8,0,14.7-1.1,20.5-2.9c1.5-0.4,2.4-1.9,2.2-3.5L621.6,210.4z"/>
				<path fill="#FFFFFF" d="M749.9,136.5c-25,0-38.1,12.4-38.1,35.9v23.5c0,24.3,12.4,35.6,38.9,35.6c10.8,0,22.3-1.9,31.6-5.2
					c1.5-0.5,2.4-2.1,2-3.6l-2.8-13.3c-0.2-0.9-0.7-1.6-1.5-2.1c-0.8-0.5-1.7-0.6-2.5-0.3c-8.6,2.4-16.7,3.6-24.9,3.6
					c-13.6,0-16-4.4-16-13.6v-3.2h46.2c1.8,0,3.1-1.4,3.1-3.2v-17.1C786,148.2,774.5,136.5,749.9,136.5z M736.6,173.3v-3
					c0-8.8,4.3-12.9,13.4-12.9c10.1,0,12.1,4.9,12.1,12.9v3H736.6z"/>
				<path fill="#FFFFFF" d="M302.1,138.3h-18.6c-1.7,0-3.2,1.4-3.2,3.1v85.1c0,1.7,1.4,3.2,3.2,3.2h18.6c1.8,0,3.2-1.4,3.2-3.2
					v-85.1C305.3,139.7,303.9,138.3,302.1,138.3z"/>
				<path fill="#FFFFFF" d="M302.1,103.4h-18.6c-1.7,0-3.2,1.4-3.2,3.2v16c0,1.8,1.4,3.2,3.2,3.2h18.6c1.8,0,3.2-1.4,3.2-3.2v-16
					C305.3,104.8,303.9,103.4,302.1,103.4z"/>
				<g>
					<path fill="#FFFFFF" d="M255.3,164.8c7.7-4.2,11.1-10.2,11.1-19.3v-12.5c0-18.3-11-27.2-33.6-27.2h-45.9
						c-1.7,0-3.1,1.4-3.1,3.1v117.6c0,1.7,1.4,3.2,3.1,3.2H236c21.9,0,34.5-10.6,34.5-29.2v-12.9
						C270.5,176.4,264.9,168.2,255.3,164.8z M209.3,127.3H230c9.4,0,10.7,4.1,10.7,8.5v10.7c0,7-3.3,9.9-10.9,9.9h-4.5
						c-1.8,0-3.2,1.4-3.2,3.2v14.8c0,1.8,1.4,3.2,3.2,3.2h8.1c8.1,0,11.4,3.1,11.4,10.8v9.1c0,7.8-3.4,10.5-13.4,10.5h-22.1
						L209.3,127.3L209.3,127.3z"/>
				</g>
				<path fill="#FFFFFF" d="M372,211.6c-0.1-0.9-0.6-1.7-1.3-2.2c-0.7-0.5-1.7-0.7-2.5-0.4c-3.3,0.8-6.4,1.3-8.9,1.3
					c-4.6,0-6.6-2-6.6-6.5v-45.1h18.1c1.7,0,3.1-1.4,3.1-3.2v-14.1c0-1.7-1.4-3.1-3.1-3.1h-18.1v-21.7c0-0.9-0.4-1.8-1.1-2.4
					c-0.7-0.6-1.6-0.9-2.5-0.7l-18.6,2.6c-1.6,0.2-2.7,1.6-2.7,3.1v19.1h-10.1c-1.7,0-3.2,1.4-3.2,3.1v14.1c0,1.7,1.4,3.2,3.2,3.2
					h10.1v48c0,16.5,8.6,24.8,25.7,24.8c4.9,0,13.1-1.1,18.5-3c1.5-0.5,2.3-1.9,2.1-3.5L372,211.6z"/>
				<path fill="#FFFFFF" d="M847.4,211.6c-0.1-0.9-0.6-1.7-1.4-2.2c-0.7-0.5-1.7-0.7-2.5-0.4c-3.3,0.8-6.4,1.3-8.9,1.3
					c-4.6,0-6.7-2-6.7-6.5v-45.1H846c1.8,0,3.1-1.4,3.1-3.1v-14.1c0-1.7-1.4-3.1-3.1-3.1H828v-21.7c0-0.9-0.4-1.8-1.1-2.4
					c-0.7-0.6-1.6-0.9-2.5-0.7l-18.6,2.6c-1.6,0.2-2.7,1.6-2.7,3.1v19.1h-10.1c-1.7,0-3.1,1.4-3.1,3.1v14.1c0,1.7,1.4,3.1,3.1,3.1
					H803v48c0,16.5,8.7,24.8,25.7,24.8c4.9,0,13.1-1.1,18.5-3c1.4-0.5,2.3-1.9,2.1-3.5L847.4,211.6z"/>
			</g>
		</g>
	</g>
</g>
<path fill="#FFFFFF" d="M708.8,224.4l-24.9-41.1l24-40.4c0.6-1,0.6-2.2,0-3.2c-0.6-1-1.6-1.6-2.7-1.6h-20.6c-1.1,0-2.2,0.6-2.7,1.6
	l-22.8,39.6v-72.7c0-1.7-1.4-3.2-3.2-3.2h-18.6c-1.7,0-3.2,1.4-3.2,3.2v119.9c0,1.7,1.4,3.1,3.2,3.1H656c1.7,0,3.2-1.4,3.2-3.1
	v-39.2l24.3,40.7c0.6,1,1.6,1.5,2.7,1.5h20.2c0,0,0,0,0,0c1.7,0,3.2-1.4,3.2-3.1C709.5,225.6,709.2,224.9,708.8,224.4z"/>
<path fill="#FFFFFF" d="M89.2,95L89.2,95L89.2,95C55.5,95,28,104,28,115.3c0,3,7.3,45.4,10.3,62.3c1.3,7.6,20.8,18.6,50.9,18.6
	l0-0.1v0.1c30.1,0,49.6-11.1,50.9-18.6c2.9-16.8,10.3-59.3,10.3-62.3C150.4,104,122.9,95,89.2,95z M89.2,182.5
	c-10.7,0-19.4-8.7-19.4-19.4c0-10.7,8.7-19.4,19.4-19.4s19.4,8.7,19.4,19.4C108.7,173.8,100,182.5,89.2,182.5z M89.2,121.5
	c-21.6,0-39.2-3.8-39.2-8.4c0-4.6,17.6-8.3,39.2-8.3c21.6,0,39.2,3.8,39.2,8.4C128.4,117.9,110.8,121.6,89.2,121.5z"/>
<path fill="#FFFFFF" d="M133.2,194.4c-0.9,0-1.7,0.7-1.7,0.7S116.4,207,89.2,207C62,207,46.9,195,46.9,195s-0.7-0.7-1.7-0.7
	c-1.1,0-2.2,0.7-2.2,2.4c0,0.2,0,0.3,0,0.5c2.3,12.5,4,21.4,4.3,22.7c2,9.2,20,16.2,41.7,16.2l0,0h0h0l0,0
	c21.7,0,39.7-6.9,41.7-16.2c0.3-1.4,2-10.2,4.3-22.7c0-0.2,0-0.3,0-0.5C135.3,195.1,134.3,194.4,133.2,194.4z"/>
<circle fill="#FFFFFF" cx="89.2" cy="163" r="9.7"/>
</svg>
