<?xml version="1.0" encoding="UTF-8" standalone="no"?>
<!-- Created with Inkscape (http://www.inkscape.org/) -->

<svg
   xmlns:dc="http://purl.org/dc/elements/1.1/"
   xmlns:cc="http://creativecommons.org/ns#"
   xmlns:rdf="http://www.w3.org/1999/02/22-rdf-syntax-ns#"
   xmlns:svg="http://www.w3.org/2000/svg"
   xmlns="http://www.w3.org/2000/svg"
   xmlns:sodipodi="http://sodipodi.sourceforge.net/DTD/sodipodi-0.dtd"
   xmlns:inkscape="http://www.inkscape.org/namespaces/inkscape"
   id="svg2"
   version="1.1"
   inkscape:version="0.91 r13725"
   xml:space="preserve"
   width="491.61249"
   height="160.55"
   viewBox="0 0 491.61249 160.55"
   sodipodi:docname="up-uhh-logo-u-2010-u-farbnegativ-u-cmyk.svg"><metadata
     id="metadata8"><rdf:RDF><cc:Work
         rdf:about=""><dc:format>image/svg+xml</dc:format><dc:type
           rdf:resource="http://purl.org/dc/dcmitype/StillImage" /><dc:title></dc:title></cc:Work></rdf:RDF></metadata><defs
     id="defs6" /><sodipodi:namedview
     pagecolor="#ffffff"
     bordercolor="#666666"
     borderopacity="1"
     objecttolerance="10"
     gridtolerance="10"
     guidetolerance="10"
     inkscape:pageopacity="0"
     inkscape:pageshadow="2"
     inkscape:window-width="1920"
     inkscape:window-height="1042"
     id="namedview4"
     showgrid="false"
     inkscape:zoom="0.59396376"
     inkscape:cx="-45.457319"
     inkscape:cy="80.275002"
     inkscape:window-x="0"
     inkscape:window-y="18"
     inkscape:window-maximized="0"
     inkscape:current-layer="g10" /><g
     id="g10"
     inkscape:groupmode="layer"
     inkscape:label="ink_ext_XXXXXX"
     transform="matrix(1.25,0,0,-1.25,0,160.55)"><g
       id="g12"
       transform="scale(0.1,0.1)"><path
         d="m 1213.23,306.047 c -61.14,0 -74.11,35.086 -74.11,72.586 l 0,134.582 31.43,0 0,-132.16 c 0,-27.227 8.65,-47.782 44.7,-47.782 31.72,0 46.14,13.907 46.14,52.012 l 0,127.93 30.86,0 0,-125.508 c 0,-54.434 -27.97,-81.66 -79.02,-81.66"
         style="fill:#ffffff;fill-opacity:1;fill-rule:nonzero;stroke:none"
         id="path14"
         inkscape:connector-curvature="0" /><path
         d="m 1432.32,309.074 0,89.598 c 0,17.363 -4.76,27.441 -20.72,27.441 -21,0 -36.39,-22.117 -36.39,-49.843 l 0,-67.196 -29.97,0 0,139.16 28.56,0 c 0,-7.285 -0.56,-19.316 -1.96,-27.16 l 0.28,-0.281 c 8.12,17.918 24.92,30.242 48.44,30.242 31.64,0 41.44,-19.883 41.44,-44.519 l 0,-97.442 -29.68,0"
         style="fill:#ffffff;fill-opacity:1;fill-rule:nonzero;stroke:none"
         id="path16"
         inkscape:connector-curvature="0" /><path
         d="m 1514.08,309.074 0,139.16 29.96,0 0,-139.16 -29.96,0 z m 15.12,159.883 c -10.64,0 -19.32,8.398 -19.32,18.758 0,10.363 8.68,18.762 19.32,18.762 10.36,0 19.04,-8.125 19.04,-18.762 0,-10.36 -8.68,-18.758 -19.04,-18.758"
         style="fill:#ffffff;fill-opacity:1;fill-rule:nonzero;stroke:none"
         id="path18"
         inkscape:connector-curvature="0" /><path
         d="m 1658.55,309.074 -30.51,0 -52.08,139.16 33.04,0 26.04,-73.644 c 3.36,-9.52 6.44,-19.317 8.96,-28.555 l 0.28,0 c 2.24,8.684 5.04,18.477 8.12,27.442 l 26.6,74.757 32.2,0 -52.65,-139.16"
         style="fill:#ffffff;fill-opacity:1;fill-rule:nonzero;stroke:none"
         id="path20"
         inkscape:connector-curvature="0" /><path
         d="m 1794.36,428.918 c -16.81,0 -28.56,-12.324 -31.08,-31.086 l 59.07,0 c 0.57,19.043 -10.36,31.086 -27.99,31.086 z m 57.11,-52.082 -88.76,0 c -0.83,-32.207 13.44,-46.766 41.16,-46.766 14.28,0 29.12,3.36 40.6,8.965 l 2.81,-23.801 c -14,-5.879 -31.08,-8.964 -48.16,-8.964 -43.41,0 -67.21,22.402 -67.21,71.406 0,41.992 22.96,73.359 63.56,73.359 39.76,0 56.84,-27.168 56.84,-60.203 0,-3.918 -0.27,-8.684 -0.84,-13.996"
         style="fill:#ffffff;fill-opacity:1;fill-rule:nonzero;stroke:none"
         id="path22"
         inkscape:connector-curvature="0" /><path
         d="m 1965.71,421.633 c -27.72,5.039 -41.15,-14.278 -41.15,-55.996 l 0,-56.563 -29.97,0 0,139.16 28.56,0 c 0,-7.843 -0.84,-20.156 -2.8,-30.8 l 0.56,0 c 6.17,18.757 20.16,36.121 46.2,33.601 l -1.4,-29.402"
         style="fill:#ffffff;fill-opacity:1;fill-rule:nonzero;stroke:none"
         id="path24"
         inkscape:connector-curvature="0" /><path
         d="m 2025.36,306.27 c -10.36,0 -20.73,1.125 -29.41,2.804 l 0.84,25.477 c 8.68,-2.52 19.6,-4.481 30.25,-4.481 16.24,0 27.44,7 27.44,18.485 0,28 -61.05,11.203 -61.05,59.355 0,24.082 19.6,43.125 57.4,43.125 8.12,0 17.64,-1.121 26.04,-2.519 l -0.84,-24.364 c -8.4,2.52 -18.19,3.926 -27.16,3.926 -16.51,0 -24.64,-6.73 -24.64,-17.363 0,-26.887 61.6,-13.164 61.6,-59.367 0,-26.035 -23.24,-45.078 -60.47,-45.078"
         style="fill:#ffffff;fill-opacity:1;fill-rule:nonzero;stroke:none"
         id="path26"
         inkscape:connector-curvature="0" /><path
         d="m 2128.67,309.074 0,139.16 29.96,0 0,-139.16 -29.96,0 z m 15.13,159.883 c -10.64,0 -19.33,8.398 -19.33,18.758 0,10.363 8.69,18.762 19.33,18.762 10.36,0 19.03,-8.125 19.03,-18.762 0,-10.36 -8.67,-18.758 -19.03,-18.758"
         style="fill:#ffffff;fill-opacity:1;fill-rule:nonzero;stroke:none"
         id="path28"
         inkscape:connector-curvature="0" /><path
         d="m 2260.83,306.602 c -29.68,0 -38.63,11.25 -38.63,41.699 l 0,74.355 -26.6,0 0,22.774 26.6,0 0,43.34 29.67,7.96 0,-51.3 36.68,0 0,-22.774 -36.41,0 0,-65.301 c 0,-20.292 4.2,-25.781 18.21,-25.781 6.17,0 12.89,0.821 18.2,2.188 l 0,-24.141 c -8.13,-1.641 -18.48,-3.019 -27.72,-3.019"
         style="fill:#ffffff;fill-opacity:1;fill-rule:nonzero;stroke:none"
         id="path30"
         inkscape:connector-curvature="0" /><path
         d="m 2406.99,474.551 c -9.53,0 -17.09,7.558 -17.09,17.082 0,9.238 7.56,16.797 17.09,16.797 9.24,0 16.79,-7.559 16.79,-16.797 0,-9.524 -7.55,-17.082 -16.79,-17.082 z m -5.61,-102.481 c -43.67,0 -53.2,-13.152 -53.2,-25.195 0,-10.359 7.28,-17.078 19.04,-17.078 20.45,0 34.16,19.598 34.16,39.473 l 0,2.8 z m -49.55,102.481 c -9.53,0 -16.8,7.558 -16.8,17.082 0,9.238 7.27,16.797 16.8,16.797 9.51,0 17.07,-7.559 17.07,-16.797 0,-9.524 -7.56,-17.082 -17.07,-17.082 z m 51.5,-165.477 c 0,8.965 0.3,18.203 1.41,25.762 l -0.27,0.273 c -6.72,-16.515 -24.08,-28.839 -46.21,-28.839 -23.79,0 -38.91,13.449 -38.91,35.566 0,31.914 31.91,50.402 82.03,50.402 l 0,8.953 c 0,17.364 -7.28,26.321 -29.12,26.321 -12.87,0 -29.67,-3.918 -41.44,-11.203 l -2.8,25.48 c 13.73,5.32 31.08,9.246 49.01,9.246 42.55,0 54.31,-18.484 54.31,-47.039 l 0,-56.848 c 0,-12.039 0.28,-26.316 0.84,-38.074 l -28.85,0"
         style="fill:#ffffff;fill-opacity:1;fill-rule:nonzero;stroke:none"
         id="path32"
         inkscape:connector-curvature="0" /><path
         d="m 2528.51,306.602 c -29.69,0 -38.63,11.25 -38.63,41.699 l 0,74.355 -26.6,0 0,22.774 26.6,0 0,43.34 29.67,7.96 0,-51.3 36.68,0 0,-22.774 -36.41,0 0,-65.301 c 0,-20.292 4.2,-25.781 18.2,-25.781 6.17,0 12.89,0.821 18.21,2.188 l 0,-24.141 c -8.13,-1.641 -18.48,-3.019 -27.72,-3.019"
         style="fill:#ffffff;fill-opacity:1;fill-rule:nonzero;stroke:none"
         id="path34"
         inkscape:connector-curvature="0" /><path
         d="m 2837.94,309.074 0,91.641 -91.99,0 0,-91.641 -31.44,0 0,204.141 31.44,0 0,-84.375 91.99,0 0,84.375 31.16,0 0,-204.141 -31.16,0"
         style="fill:#ffffff;fill-opacity:1;fill-rule:nonzero;stroke:none"
         id="path36"
         inkscape:connector-curvature="0" /><path
         d="m 3006.15,372.07 c -43.69,0 -53.21,-13.152 -53.21,-25.195 0,-10.359 7.29,-17.078 19.05,-17.078 20.43,0 34.16,19.598 34.16,39.473 l 0,2.8 z m 1.95,-62.996 c 0,8.965 0.27,18.203 1.41,25.762 l -0.3,0.273 c -6.71,-16.515 -24.08,-28.839 -46.19,-28.839 -23.81,0 -38.92,13.449 -38.92,35.566 0,31.914 31.91,50.402 82.05,50.402 l 0,8.953 c 0,17.364 -7.29,26.321 -29.12,26.321 -12.89,0 -29.69,-3.918 -41.45,-11.203 l -2.79,25.48 c 13.71,5.32 31.07,9.246 48.98,9.246 42.56,0 54.34,-18.484 54.34,-47.039 l 0,-56.848 c 0,-12.039 0.27,-26.316 0.84,-38.074 l -28.85,0"
         style="fill:#ffffff;fill-opacity:1;fill-rule:nonzero;stroke:none"
         id="path38"
         inkscape:connector-curvature="0" /><path
         d="m 3262.63,309.074 0,88.758 c 0,17.363 -4.2,28.281 -20.15,28.281 -17.93,0 -35.84,-19.883 -35.84,-50.398 l 0,-66.641 -29.42,0 0,89.043 c 0,15.672 -3.36,27.996 -20.15,27.996 -19.05,0 -35.57,-21.277 -35.57,-50.398 l 0,-66.641 -29.96,0 0,139.16 28.57,0 c 0,-7.285 -0.56,-19.043 -1.97,-27.16 l 0.57,-0.281 c 8.12,18.477 25.48,30.242 47.03,30.242 27.44,0 36.4,-17.644 38.65,-29.961 5.88,13.438 21.27,29.961 46.48,29.961 26.61,0 41.43,-14.285 41.43,-45.926 l 0,-96.035 -29.67,0"
         style="fill:#ffffff;fill-opacity:1;fill-rule:nonzero;stroke:none"
         id="path40"
         inkscape:connector-curvature="0" /><path
         d="m 3408.78,426.113 c -22.4,0 -34.45,-26.043 -34.45,-49.558 l 0,-43.125 c 6.17,-1.953 13.17,-2.793 21.86,-2.793 23.79,0 40.04,14.558 40.04,52.078 0,28 -8.7,43.398 -27.45,43.398 z m -14.84,-119.277 c -19.61,0 -34.43,1.953 -49.57,5.879 l 0,200.754 29.96,0 0,-64.114 c 0,-8.125 -0.84,-19.324 -2.52,-26.601 l 0.57,0 c 7.28,17.355 23.81,28.281 44.24,28.281 33.04,0 51.25,-23.523 51.25,-65.527 0,-48.153 -27.74,-78.672 -73.93,-78.672"
         style="fill:#ffffff;fill-opacity:1;fill-rule:nonzero;stroke:none"
         id="path42"
         inkscape:connector-curvature="0" /><path
         d="m 3602.81,309.074 c 0,7.274 0.56,19.317 1.97,27.156 l -0.29,0.286 c -8.11,-17.922 -24.92,-30.246 -48.44,-30.246 -31.64,0 -41.45,19.882 -41.45,44.523 l 0,97.441 29.69,0 0,-89.601 c 0,-17.363 4.77,-27.442 20.72,-27.442 21,0 36.41,22.122 36.41,49.844 l 0,67.199 29.96,0 0,-139.16 -28.57,0"
         style="fill:#ffffff;fill-opacity:1;fill-rule:nonzero;stroke:none"
         id="path44"
         inkscape:connector-curvature="0" /><path
         d="m 3762.98,421.633 c -27.71,5.039 -41.17,-14.278 -41.17,-55.996 l 0,-56.563 -29.96,0 0,139.16 28.57,0 c 0,-7.843 -0.84,-20.156 -2.81,-30.8 l 0.57,0 c 6.15,18.757 20.15,36.121 46.19,33.601 l -1.39,-29.402"
         style="fill:#ffffff;fill-opacity:1;fill-rule:nonzero;stroke:none"
         id="path46"
         inkscape:connector-curvature="0" /><path
         d="m 3861.54,428.918 c -19.88,0 -31.64,-12.043 -31.64,-29.121 0,-18.203 11.21,-28.848 31.36,-28.848 18.75,0 31.08,10.36 31.08,28.563 0,18.476 -11.49,29.406 -30.8,29.406 z m 14,-122.082 -26.03,0 c -2.52,0 -5.34,0 -7.56,0.273 -9.53,-5.312 -15.41,-13.718 -15.41,-23.23 0,-14.848 14,-23.238 34.16,-23.238 26.03,0 40.6,11.199 40.6,26.312 0,12.043 -8.12,19.883 -25.76,19.883 z m -19.61,-69.445 c -36.38,0 -59.06,14.007 -59.06,40.879 0,15.687 10.35,28.839 22.38,35.003 -8.4,4.2 -13.71,11.485 -13.71,20.723 0,10.078 6.15,19.598 15.96,23.797 -13.71,7.559 -20.72,21.836 -20.72,39.199 0,29.406 22.4,54.043 62.16,54.043 8.4,0 15.39,-1.121 22.95,-2.801 l 47.05,0 0,-23.527 -21.28,0 c 5.87,-4.754 9.53,-13.152 9.53,-23.23 0,-30.247 -21.02,-51.524 -60.22,-51.524 -5.31,0 -11.76,0.555 -15.96,1.395 -5.58,-2.235 -8.1,-6.434 -8.1,-10.352 0,-7 6.15,-9.805 22.95,-9.805 l 23.81,0 c 30.23,0 47.3,-14.277 47.3,-40.32 0,-29.68 -30.23,-53.48 -75.04,-53.48"
         style="fill:#ffffff;fill-opacity:1;fill-rule:nonzero;stroke:none"
         id="path48"
         inkscape:connector-curvature="0" /><path
         d="m 978.43,305.977 -972.19953,0 0,972.183 972.19953,0 0,-6.27 0,-959.652 0,-6.261 0,0"
         style="fill:#ed1c24;fill-opacity:1;fill-rule:nonzero;stroke:none"
         id="path50"
         inkscape:connector-curvature="0" /><path
         d="M 984.664,1284.4 0,1284.4 0,299.738 l 984.664,0 0,12.5 0,959.662 0,12.5 0,0 z m -12.5,-12.5 0,-959.662 -959.664,0 0,959.662 959.664,0"
         style="fill:#ffffff;fill-opacity:1;fill-rule:nonzero;stroke:none"
         id="path52"
         inkscape:connector-curvature="0" /><path
         d="m 629.449,703.07 13.711,0 -6.855,11.875 6.855,11.875 -13.711,0 -6.855,11.856 -6.856,-11.856 -13.707,0 6.852,-11.875 -6.852,-11.875 13.711,0 6.852,-11.875 6.855,11.875 0,0"
         style="fill:#ffffff;fill-opacity:1;fill-rule:nonzero;stroke:none"
         id="path54"
         inkscape:connector-curvature="0" /><path
         d="m 843.98,703.07 13.711,0 -6.855,11.875 6.855,11.875 -13.711,0 -6.851,11.856 -6.859,-11.856 -13.707,0 6.855,-11.875 -6.855,-11.875 13.707,0 6.859,-11.875 6.851,11.875 0,0"
         style="fill:#ffffff;fill-opacity:1;fill-rule:nonzero;stroke:none"
         id="path56"
         inkscape:connector-curvature="0" /><path
         d="m 692.18,697.586 0,-2.563 -15.012,0 0,-17.519 16.91,0 0,-109.543 -38.984,0 0,107.086 -64.996,0 -0.004,-107.086 -21.246,0 0,-18.184 322.027,0 0,18.184 -21.25,0 0,107.086 -64.996,0 0,-107.086 -38.984,0 0,109.543 16.91,0 0,17.519 -15.012,0 c -0.949,18.852 -10.32,34.961 -29.988,39.317 l 0,18.941 14.078,0 0,13.157 -14.078,0 0,16.074 -15.387,0 0,-16.074 -14.078,0 0,-13.157 14.078,0 0,-18.98 C 704.797,730.258 692.18,715.863 692.18,697.586 l 0,0"
         style="fill:#ffffff;fill-opacity:1;fill-rule:nonzero;stroke:none"
         id="path58"
         inkscape:connector-curvature="0" /><path
         d="m 729.863,474.621 c -23.742,0 -42.984,-19.238 -42.984,-42.969 l -0.762,-71.972 -135.137,0 c 20.075,55.742 33.411,111.836 37.543,171.308 l 141.34,0 141.328,0 c 4.137,-59.472 17.477,-115.566 37.547,-171.308 l -135.14,0 -0.754,71.972 c 0,23.731 -19.25,42.969 -42.981,42.969 l 0,0"
         style="fill:#ffffff;fill-opacity:1;fill-rule:nonzero;stroke:none"
         id="path60"
         inkscape:connector-curvature="0" /><path
         d="m 430.313,958.535 -38.497,0 0,108.005 -112.507,0 0,-24.95 c 0,-54.156 -32.047,-86.617 -94.637,-86.617 -64.266,0 -94.6368,29.902 -94.6368,85.547 l 0,158.62 38.8518,0 0,-150.78 c 0,-38.75 13.519,-61.309 56.14,-61.309 41.961,0 56.141,22.559 56.141,61.309 l 0,150.78 38.141,0 0,-99.46 112.507,0 0,99.46 38.497,0 0,-99.46 113.234,0 0,99.46 38.496,0 0,-240.605 -38.496,0 0,108.005 -113.234,0 0,-108.005 0,0"
         style="fill:#ffffff;fill-opacity:1;fill-rule:nonzero;stroke:none"
         id="path62"
         inkscape:connector-curvature="0" /><path
         d="m 46.1367,118.18 c -5.4219,0 -10.4922,-0.18 -14.2969,-0.539 l 0,-82.3402 c 3.2618,-0.5391 8.1446,-0.9024 12.8516,-0.9024 22.9844,0 39.6367,13.0235 39.6367,41.9805 0,26.2421 -10.3203,41.8011 -38.1914,41.8011 z M 42.3398,14.3086 c -12.6679,0 -23.707,0.5312 -34.02339,0.9102 l 0,121.7812 c 9.59379,0.359 24.43359,0.91 39.45309,0.91 37.8203,0 61.8865,-16.84 61.8865,-59.7303 0,-41.9805 -27.5037,-63.8711 -67.3162,-63.8711"
         style="fill:#ffffff;fill-opacity:1;fill-rule:nonzero;stroke:none"
         id="path64"
         inkscape:connector-curvature="0" /><path
         d="m 130.855,15.0313 0,122.1597 66.415,0 0,-19.73 -42.891,0 0,-30.0508 40.723,0 0,-19.1797 -40.723,0 0,-33.1094 42.891,0 0,-20.0898 -66.415,0"
         style="fill:#ffffff;fill-opacity:1;fill-rule:nonzero;stroke:none"
         id="path66"
         inkscape:connector-curvature="0" /><path
         d="m 254.652,118.719 c -3.437,0 -6.879,-0.168 -9.226,-0.539 l 0,-35.2894 c 1.625,-0.1718 4.883,-0.3593 8.5,-0.3593 14.117,0 22.804,7.2382 22.804,18.6407 0,11.758 -7.238,17.547 -22.078,17.547 z m 25.7,-103.6877 -34.024,50.4882 -0.902,0 0,-50.4882 -23.531,0 0,122.1597 c 9.593,0.539 20.996,0.719 35.113,0.719 26.961,0 44.336,-9.41 44.336,-34.379 0,-18.1013 -12.672,-31.1404 -31.129,-34.031 3.437,-4.5195 6.875,-9.2305 9.957,-13.3906 l 29.316,-41.0781 -29.136,0"
         style="fill:#ffffff;fill-opacity:1;fill-rule:nonzero;stroke:none"
         id="path68"
         inkscape:connector-curvature="0" /><path
         d="m 418.086,116.762 0,-31.3323 39.254,0 0,-19.2695 -39.254,0 0,-51.1289 -23.406,0 0,121.5277 65,0 0,-19.797 -41.594,0"
         style="fill:#ffffff;fill-opacity:1;fill-rule:nonzero;stroke:none"
         id="path70"
         inkscape:connector-curvature="0" /><path
         d="m 531.137,117.48 c -16.742,0 -32.227,-13.32 -32.227,-40.6909 0,-25.7383 10.078,-42.4883 31.867,-42.4883 15.844,0 32.774,12.2383 32.774,41.3984 0,27.0198 -11.524,41.7808 -32.414,41.7808 z M 529.156,13.0508 c -37.09,0 -55.273,23.5781 -55.273,61.2187 0,40.1525 26.824,64.2815 59.418,64.2815 32.406,0 55.273,-19.449 55.273,-61.0393 0,-40.1601 -26.465,-64.4609 -59.418,-64.4609"
         style="fill:#ffffff;fill-opacity:1;fill-rule:nonzero;stroke:none"
         id="path72"
         inkscape:connector-curvature="0" /><path
         d="m 642.371,118.199 c -3.422,0 -6.844,-0.179 -9.183,-0.539 l 0,-35.1092 c 1.621,-0.1797 4.863,-0.3594 8.46,-0.3594 14.043,0 22.688,7.207 22.688,18.5386 0,11.711 -7.203,17.469 -21.965,17.469 z m 25.567,-103.1677 -33.852,50.2304 -0.898,0 0,-50.2304 -23.407,0 0,121.5277 c 9.543,0.55 20.887,0.73 34.93,0.73 26.828,0 44.113,-9.367 44.113,-34.211 0,-18.0077 -12.601,-30.9686 -30.969,-33.8475 3.418,-4.5 6.84,-9.1914 9.903,-13.3321 l 29.172,-40.8671 -28.992,0"
         style="fill:#ffffff;fill-opacity:1;fill-rule:nonzero;stroke:none"
         id="path74"
         inkscape:connector-curvature="0" /><path
         d="m 736.684,13.0508 c -8.641,0 -17.286,0.8984 -24.848,2.8789 l 1.441,21.7891 c 6.84,-2.3477 16.563,-4.3204 25.383,-4.3204 11.887,0 21.07,4.8516 21.07,16.0235 0,23.2265 -50.957,12.5976 -50.957,52.5661 0,21.614 17.106,36.563 46.278,36.563 6.84,0 14.762,-0.903 21.965,-2.16 l -1.258,-20.532 c -6.848,1.981 -14.406,3.243 -21.789,3.243 -13.504,0 -20.348,-6.122 -20.348,-14.762 0,-21.7892 51.137,-13.6916 51.137,-51.6798 0,-22.8594 -18.188,-39.6094 -48.074,-39.6094"
         style="fill:#ffffff;fill-opacity:1;fill-rule:nonzero;stroke:none"
         id="path76"
         inkscape:connector-curvature="0" /><path
         d="m 857.828,13.4102 c -42.492,0 -56.18,28.2695 -56.18,58.5117 0,38.5391 20.168,65.5471 60.864,65.5471 8.64,0 17.824,-1.078 25.746,-3.239 l -2.52,-21.25 c -7.925,2.34 -16.207,3.602 -24.488,3.602 -22.687,0 -33.852,-17.1132 -33.852,-40.6914 0,-26.4687 10.985,-41.2304 35.473,-41.2304 7.383,0 17.285,2.1601 23.582,5.039 l 2.703,-20.8906 c -9,-3.2383 -19.984,-5.3984 -31.328,-5.3984"
         style="fill:#ffffff;fill-opacity:1;fill-rule:nonzero;stroke:none"
         id="path78"
         inkscape:connector-curvature="0" /><path
         d="m 988.152,15.0313 0,52.75 -51.492,0 0,-52.75 -23.406,0 0,121.5277 23.406,0 0,-48.6098 51.492,0 0,48.6098 23.408,0 0,-121.5277 -23.408,0"
         style="fill:#ffffff;fill-opacity:1;fill-rule:nonzero;stroke:none"
         id="path80"
         inkscape:connector-curvature="0" /><path
         d="m 1089.66,13.0508 c -38.35,0 -46.99,20.8906 -46.99,44.1094 l 0,79.3988 23.4,0 0,-77.9574 c 0,-15.3008 5.05,-26.1133 25.21,-26.1133 18.01,0 25.57,7.5703 25.57,28.2734 l 0,75.7973 23.23,0 0,-74.3481 c 0,-33.3125 -18.37,-49.1601 -50.42,-49.1601"
         style="fill:#ffffff;fill-opacity:1;fill-rule:nonzero;stroke:none"
         id="path82"
         inkscape:connector-curvature="0" /><path
         d="m 1240.86,15.0313 -35.65,61.3984 c -5.4,9.1914 -9.54,18.1797 -13.14,26.1093 0.72,-10.4492 1.08,-29.5273 1.08,-44.1171 l 0,-43.3906 -22.69,0 0,121.5277 30.43,0 33.86,-57.9809 c 5.58,-9.3476 10.44,-19.4375 14.94,-28.6172 -0.9,12.25 -1.26,33.8477 -1.26,48.7891 l 0,37.809 22.68,0 0,-121.5277 -30.25,0"
         style="fill:#ffffff;fill-opacity:1;fill-rule:nonzero;stroke:none"
         id="path84"
         inkscape:connector-curvature="0" /><path
         d="m 1391.71,111.359 c -9.72,3.782 -20.88,6.121 -32.23,6.121 -23.94,0 -41.23,-15.128 -41.23,-42.3081 0,-25.75 14.04,-40.8711 38.71,-40.8711 5.76,0 10.81,0.7187 15.49,2.1601 l 0,42.3086 23.4,0 0,-57.9804 c -12.06,-4.8594 -27,-7.5586 -41.59,-7.5586 -38.53,0 -61.39,22.6914 -61.39,59.7812 0,38.1683 25.92,65.3593 68.05,65.3593 12.07,0 23.95,-2.172 34.39,-5.223 l -3.6,-21.789"
         style="fill:#ffffff;fill-opacity:1;fill-rule:nonzero;stroke:none"
         id="path86"
         inkscape:connector-curvature="0" /><path
         d="m 1529.04,0 0,141.141 16.66,0 0,-141.141 -16.66,0"
         style="fill:#ffffff;fill-opacity:1;fill-rule:nonzero;stroke:none"
         id="path88"
         inkscape:connector-curvature="0" /><path
         d="m 1714.7,117.66 c -5.4,0 -10.45,-0.18 -14.23,-0.539 l 0,-81.9218 c 3.25,-0.539 8.1,-0.8984 12.79,-0.8984 22.86,0 39.43,12.9609 39.43,41.7695 0,26.1097 -10.26,41.5897 -37.99,41.5897 z m -3.78,-103.3514 c -12.6,0 -23.59,0.543 -33.85,0.9023 l 0,121.1801 c 9.54,0.359 24.3,0.898 39.25,0.898 37.63,0 61.58,-16.75 61.58,-59.4179 0,-41.7813 -27.37,-63.5625 -66.98,-63.5625"
         style="fill:#ffffff;fill-opacity:1;fill-rule:nonzero;stroke:none"
         id="path90"
         inkscape:connector-curvature="0" /><path
         d="m 1798.93,15.0313 0,121.5277 66.07,0 0,-19.618 -42.67,0 0,-29.8902 40.52,0 0,-19.082 -40.52,0 0,-32.9493 42.67,0 0,-19.9882 -66.07,0"
         style="fill:#ffffff;fill-opacity:1;fill-rule:nonzero;stroke:none"
         id="path92"
         inkscape:connector-curvature="0" /><path
         d="m 1922.06,118.199 c -3.43,0 -6.85,-0.179 -9.19,-0.539 l 0,-35.1092 c 1.62,-0.1797 4.86,-0.3594 8.46,-0.3594 14.05,0 22.69,7.207 22.69,18.5386 0,11.711 -7.2,17.469 -21.96,17.469 z m 25.56,-103.1677 -33.85,50.2304 -0.9,0 0,-50.2304 -23.41,0 0,121.5277 c 9.55,0.55 20.89,0.73 34.93,0.73 26.83,0 44.12,-9.367 44.12,-34.211 0,-18.0077 -12.61,-30.9686 -30.97,-33.8475 3.42,-4.5 6.84,-9.1914 9.9,-13.3321 l 29.18,-40.8671 -29,0"
         style="fill:#ffffff;fill-opacity:1;fill-rule:nonzero;stroke:none"
         id="path94"
         inkscape:connector-curvature="0" /><path
         d="m 2061.36,15.0313 0,121.5277 23.4,0 0,-101.0004 39.43,0 0,-20.5273 -62.83,0"
         style="fill:#ffffff;fill-opacity:1;fill-rule:nonzero;stroke:none"
         id="path96"
         inkscape:connector-curvature="0" /><path
         d="m 2141.28,15.0313 0,121.5277 66.08,0 0,-19.618 -42.68,0 0,-29.8902 40.53,0 0,-19.082 -40.53,0 0,-32.9493 42.68,0 0,-19.9882 -66.08,0"
         style="fill:#ffffff;fill-opacity:1;fill-rule:nonzero;stroke:none"
         id="path98"
         inkscape:connector-curvature="0" /><path
         d="m 2307.63,15.0313 0,52.75 -51.5,0 0,-52.75 -23.4,0 0,121.5277 23.4,0 0,-48.6098 51.5,0 0,48.6098 23.4,0 0,-121.5277 -23.4,0"
         style="fill:#ffffff;fill-opacity:1;fill-rule:nonzero;stroke:none"
         id="path100"
         inkscape:connector-curvature="0" /><path
         d="m 2395.09,118.199 c -3.42,0 -6.83,-0.179 -9.18,-0.539 l 0,-35.1092 c 1.62,-0.1797 4.87,-0.3594 8.46,-0.3594 14.04,0 22.7,7.207 22.7,18.5386 0,11.711 -7.21,17.469 -21.98,17.469 z m 25.57,-103.1677 -33.85,50.2304 -0.9,0 0,-50.2304 -23.4,0 0,121.5277 c 9.54,0.55 20.88,0.73 34.93,0.73 26.83,0 44.12,-9.367 44.12,-34.211 0,-18.0077 -12.62,-30.9686 -30.98,-33.8475 3.42,-4.5 6.84,-9.1914 9.9,-13.3321 l 29.16,-40.8671 -28.98,0"
         style="fill:#ffffff;fill-opacity:1;fill-rule:nonzero;stroke:none"
         id="path102"
         inkscape:connector-curvature="0" /><path
         d="m 2468.53,15.0313 0,121.5277 66.07,0 0,-19.618 -42.67,0 0,-29.8902 40.51,0 0,-19.082 -40.51,0 0,-32.9493 42.67,0 0,-19.9882 -66.07,0"
         style="fill:#ffffff;fill-opacity:1;fill-rule:nonzero;stroke:none"
         id="path104"
         inkscape:connector-curvature="0" /><path
         d="m 2665.82,0 0,141.141 16.64,0 0,-141.141 -16.64,0"
         style="fill:#ffffff;fill-opacity:1;fill-rule:nonzero;stroke:none"
         id="path106"
         inkscape:connector-curvature="0" /><path
         d="m 2848.08,117.66 c -5.41,0 -10.45,-0.18 -14.24,-0.539 l 0,-81.9218 c 3.24,-0.539 8.11,-0.8984 12.8,-0.8984 22.87,0 39.43,12.9609 39.43,41.7695 0,26.1097 -10.27,41.5897 -37.99,41.5897 z m -3.79,-103.3514 c -12.6,0 -23.57,0.543 -33.85,0.9023 l 0,121.1801 c 9.56,0.359 24.32,0.898 39.26,0.898 37.62,0 61.58,-16.75 61.58,-59.4179 0,-41.7813 -27.38,-63.5625 -66.99,-63.5625"
         style="fill:#ffffff;fill-opacity:1;fill-rule:nonzero;stroke:none"
         id="path108"
         inkscape:connector-curvature="0" /><path
         d="m 2932.3,15.0313 0,121.5277 66.07,0 0,-19.618 -42.67,0 0,-29.8902 40.53,0 0,-19.082 -40.53,0 0,-32.9493 42.67,0 0,-19.9882 -66.07,0"
         style="fill:#ffffff;fill-opacity:1;fill-rule:nonzero;stroke:none"
         id="path110"
         inkscape:connector-curvature="0" /><path
         d="m 3055.44,118.199 c -3.43,0 -6.85,-0.179 -9.19,-0.539 l 0,-35.1092 c 1.62,-0.1797 4.86,-0.3594 8.47,-0.3594 14.04,0 22.68,7.207 22.68,18.5386 0,11.711 -7.19,17.469 -21.96,17.469 z m 25.57,-103.1677 -33.85,50.2304 -0.91,0 0,-50.2304 -23.4,0 0,121.5277 c 9.55,0.55 20.88,0.73 34.92,0.73 26.83,0 44.12,-9.367 44.12,-34.211 0,-18.0077 -12.6,-30.9686 -30.98,-33.8475 3.44,-4.5 6.86,-9.1914 9.91,-13.3321 l 29.18,-40.8671 -28.99,0"
         style="fill:#ffffff;fill-opacity:1;fill-rule:nonzero;stroke:none"
         id="path112"
         inkscape:connector-curvature="0" /><path
         d="m 3228.41,68.6797 c -1.79,0 -7.73,0 -10.27,-0.168 l 0,-34.0429 c 2.89,-0.3594 7.38,-0.7071 12.79,-0.7071 15.32,0 23.05,7.1992 23.05,18.1797 0,11.8906 -10.25,16.7383 -25.57,16.7383 z m 3.42,49.6993 c -4.86,0 -9.53,-0.18 -13.69,-0.359 l 0,-31.688 c 2.89,-0.1836 5.76,-0.1836 9.55,-0.1836 16.04,0 24.32,6.4922 24.32,17.2926 0,9 -5.41,14.938 -20.18,14.938 z m -1.62,-103.7071 c -7.38,0 -20.16,0.3594 -35.47,0.3594 l 0,121.3597 c 10.27,0.531 26.11,0.898 41.06,0.898 26.28,0 40.87,-10.629 40.87,-30.07 0,-12.0588 -7.75,-22.6877 -19.27,-27.1877 l 0,-0.3594 c 14.41,-3.0625 21.6,-14.9414 21.6,-27.1914 0,-17.6524 -12.05,-37.8086 -48.79,-37.8086"
         style="fill:#ffffff;fill-opacity:1;fill-rule:nonzero;stroke:none"
         id="path114"
         inkscape:connector-curvature="0" /><path
         d="m 3303.28,15.0313 0,121.5277 23.39,0 0,-121.5277 -23.39,0"
         style="fill:#ffffff;fill-opacity:1;fill-rule:nonzero;stroke:none"
         id="path116"
         inkscape:connector-curvature="0" /><path
         d="m 3358,15.0313 0,121.5277 23.4,0 0,-101.0004 39.43,0 0,-20.5273 -62.83,0"
         style="fill:#ffffff;fill-opacity:1;fill-rule:nonzero;stroke:none"
         id="path118"
         inkscape:connector-curvature="0" /><path
         d="m 3475.54,117.66 c -5.39,0 -10.43,-0.18 -14.22,-0.539 l 0,-81.9218 c 3.25,-0.539 8.11,-0.8984 12.8,-0.8984 22.85,0 39.41,12.9609 39.41,41.7695 0,26.1097 -10.25,41.5897 -37.99,41.5897 z m -3.77,-103.3514 c -12.61,0 -23.59,0.543 -33.85,0.9023 l 0,121.1801 c 9.54,0.359 24.3,0.898 39.24,0.898 37.64,0 61.59,-16.75 61.59,-59.4179 0,-41.7813 -27.37,-63.5625 -66.98,-63.5625"
         style="fill:#ffffff;fill-opacity:1;fill-rule:nonzero;stroke:none"
         id="path120"
         inkscape:connector-curvature="0" /><path
         d="m 3607.67,13.0508 c -38.36,0 -46.99,20.8906 -46.99,44.1094 l 0,79.3988 23.4,0 0,-77.9574 c 0,-15.3008 5.04,-26.1133 25.21,-26.1133 17.99,0 25.57,7.5703 25.57,28.2734 l 0,75.7973 23.22,0 0,-74.3481 c 0,-33.3125 -18.36,-49.1601 -50.41,-49.1601"
         style="fill:#ffffff;fill-opacity:1;fill-rule:nonzero;stroke:none"
         id="path122"
         inkscape:connector-curvature="0" /><path
         d="m 3758.86,15.0313 -35.66,61.3984 c -5.39,9.1914 -9.53,18.1797 -13.15,26.1093 0.73,-10.4492 1.1,-29.5273 1.1,-44.1171 l 0,-43.3906 -22.7,0 0,121.5277 30.43,0 33.85,-57.9809 c 5.59,-9.3476 10.45,-19.4375 14.94,-28.6172 -0.9,12.25 -1.25,33.8477 -1.25,48.7891 l 0,37.809 22.68,0 0,-121.5277 -30.24,0"
         style="fill:#ffffff;fill-opacity:1;fill-rule:nonzero;stroke:none"
         id="path124"
         inkscape:connector-curvature="0" /><path
         d="m 3909.7,111.359 c -9.72,3.782 -20.88,6.121 -32.22,6.121 -23.95,0 -41.23,-15.128 -41.23,-42.3081 0,-25.75 14.04,-40.8711 38.71,-40.8711 5.76,0 10.8,0.7187 15.48,2.1601 l 0,42.3086 23.4,0 0,-57.9804 c -12.05,-4.8594 -27.01,-7.5586 -41.58,-7.5586 -38.53,0 -61.41,22.6914 -61.41,59.7812 0,38.1683 25.94,65.3593 68.07,65.3593 12.05,0 23.95,-2.172 34.4,-5.223 l -3.62,-21.789"
         style="fill:#ffffff;fill-opacity:1;fill-rule:nonzero;stroke:none"
         id="path126"
         inkscape:connector-curvature="0" /></g></g></svg>